<svg width="32" height="32" viewBox="0 0 32 32" fill="none" xmlns="http://www.w3.org/2000/svg">
<g clip-path="url(#clip0_8_14)">
<path d="M21.7276 9.72678C23.47 11.3639 24.398 13.5025 24.4962 15.8828C24.5239 18.1273 23.6462 20.3008 22.0945 21.9157C20.466 23.574 18.2867 24.4693 15.9666 24.4979C13.6694 24.472 11.5247 23.5368 9.90631 21.9179C8.3223 20.2962 7.47823 18.0834 7.50374 15.8219C7.57615 13.4705 8.57952 11.3738 10.2494 9.7428C13.4228 6.77975 18.5454 6.80836 21.7276 9.72678ZM11.7813 11.0195C11.7103 11.0779 11.7103 11.0779 11.6378 11.1374C10.6618 11.9663 10.0291 13.0829 9.67193 14.3008C9.65199 14.3669 9.63205 14.4331 9.61151 14.5013C9.20354 16.1407 9.53026 17.9016 10.3692 19.3442C10.5597 19.6594 10.7787 19.941 11.0196 20.2187C11.0585 20.2661 11.0974 20.3134 11.1375 20.3622C11.9663 21.3382 13.083 21.971 14.3008 22.3281C14.367 22.348 14.4332 22.368 14.5013 22.3885C16.1408 22.7965 17.9017 22.4698 19.3443 21.6309C19.6595 21.4403 19.9411 21.2213 20.2188 20.9804C20.2662 20.9415 20.3135 20.9026 20.3623 20.8626C21.3383 20.0337 21.971 18.917 22.3282 17.6992C22.3481 17.633 22.3681 17.5669 22.3886 17.4987C22.7966 15.8593 22.4699 14.0983 21.6309 12.6558C21.4404 12.3405 21.2214 12.059 20.9805 11.7812C20.9416 11.7339 20.9027 11.6865 20.8627 11.6377C20.0338 10.6618 18.9171 10.029 17.6993 9.67185C17.6331 9.65191 17.5669 9.63197 17.4988 9.61142C15.4977 9.11346 13.3232 9.68217 11.7813 11.0195Z" fill="black"/>
<path d="M6.02438 5.08691C6.09825 5.08465 6.09825 5.08465 6.17361 5.08234C6.61439 5.13584 6.88756 5.45396 7.18595 5.75227C7.23316 5.79903 7.28036 5.84579 7.329 5.89397C7.42845 5.99279 7.52767 6.09184 7.62668 6.19111C7.77781 6.3423 7.93015 6.4922 8.0826 6.64205C8.1793 6.73845 8.27593 6.83492 8.37248 6.93147C8.41789 6.97592 8.4633 7.02037 8.51009 7.06617C8.8086 7.36854 8.99004 7.6268 9.04608 8.05872C9.00968 8.43725 8.84631 8.6659 8.55856 8.91016C8.28093 9.06104 7.9801 9.05588 7.67965 8.96875C7.35383 8.77777 7.10226 8.5265 6.83645 8.26036C6.79041 8.21457 6.74436 8.16877 6.69692 8.12159C6.60006 8.02507 6.50335 7.92839 6.40678 7.83156C6.25894 7.68354 6.11034 7.53631 5.96166 7.38912C5.86747 7.29506 5.77332 7.20095 5.67922 7.1068C5.63479 7.0629 5.59036 7.01901 5.54458 6.97379C5.50349 6.93234 5.46241 6.89088 5.42007 6.84817C5.36584 6.794 5.36584 6.794 5.31052 6.73873C5.10967 6.48992 5.07839 6.2433 5.08711 5.93401C5.11891 5.6488 5.24501 5.47005 5.45675 5.28833C5.66869 5.1305 5.76523 5.09163 6.02438 5.08691Z" fill="black"/>
<path d="M24.568 23.1856C24.7834 23.3516 24.9716 23.5475 25.1635 23.7396C25.2095 23.7854 25.2556 23.8312 25.303 23.8784C25.3999 23.9749 25.4966 24.0716 25.5932 24.1684C25.741 24.3165 25.8896 24.4637 26.0383 24.6109C26.1325 24.7049 26.2266 24.7991 26.3207 24.8932C26.3651 24.9371 26.4096 24.981 26.4554 25.0262C26.4964 25.0677 26.5375 25.1091 26.5799 25.1518C26.6341 25.206 26.6341 25.206 26.6894 25.2613C26.8903 25.5101 26.9215 25.7567 26.9128 26.066C26.8813 26.3491 26.7557 26.5293 26.5468 26.7117C26.3391 26.8631 26.1938 26.9079 25.9426 26.9131C25.8993 26.9146 25.856 26.9161 25.8114 26.9177C25.3798 26.8598 25.1067 26.5404 24.814 26.2477C24.7668 26.201 24.7196 26.1542 24.6709 26.106C24.5715 26.0072 24.4723 25.9082 24.3733 25.8089C24.2221 25.6577 24.0698 25.5078 23.9173 25.358C23.8206 25.2616 23.724 25.1651 23.6275 25.0685C23.582 25.0241 23.5366 24.9796 23.4898 24.9338C23.1913 24.6315 23.0099 24.3732 22.9539 23.9413C22.9903 23.5628 23.1536 23.3341 23.4414 23.0899C23.8163 22.8861 24.2251 22.9512 24.568 23.1856Z" fill="black"/>
<path d="M26.7227 4.75003C26.9678 4.90349 27.1448 5.0743 27.283 5.32864C27.3346 5.697 27.307 5.97702 27.0941 6.28851C26.9365 6.49377 26.7505 6.67242 26.5673 6.8546C26.5241 6.8979 26.4809 6.9412 26.4364 6.98582C26.3454 7.07691 26.2542 7.16786 26.1629 7.25867C26.0235 7.39748 25.8847 7.5369 25.7459 7.6764C25.6572 7.76505 25.5684 7.85367 25.4796 7.94224C25.4383 7.98381 25.397 8.02537 25.3544 8.0682C25.0596 8.36016 24.8179 8.58232 24.3858 8.62065C24.0703 8.61192 23.8546 8.49767 23.6245 8.28762C23.4328 7.98306 23.3686 7.71949 23.4012 7.36111C23.6823 6.76759 24.3077 6.26994 24.7674 5.8059C24.8433 5.729 24.9189 5.65179 24.9942 5.57427C25.1046 5.46062 25.216 5.34797 25.3276 5.23548C25.3607 5.20106 25.3938 5.16664 25.4279 5.13117C25.7837 4.77723 26.2254 4.57965 26.7227 4.75003Z" fill="black"/>
<path d="M9.04198 22.5112C9.28688 22.6782 9.45908 22.8617 9.55467 23.1484C9.57069 23.2645 9.57069 23.2645 9.57664 23.3938C9.57952 23.4357 9.58239 23.4776 9.58534 23.5208C9.49654 23.9695 9.12229 24.31 8.80966 24.6199C8.76669 24.6631 8.72372 24.7062 8.67945 24.7506C8.5891 24.8411 8.49853 24.9314 8.40776 25.0214C8.26926 25.159 8.13173 25.2974 7.99427 25.436C7.90602 25.5241 7.81771 25.6122 7.72934 25.7002C7.66807 25.762 7.66807 25.762 7.60557 25.8251C7.31855 26.108 7.05124 26.3375 6.62865 26.3381C6.32564 26.3272 6.16152 26.2651 5.92186 26.0781C5.70618 25.8016 5.66047 25.5882 5.65063 25.2416C5.75495 24.79 6.11394 24.4537 6.4325 24.1379C6.47547 24.0948 6.51844 24.0516 6.56271 24.0072C6.65306 23.9167 6.74362 23.8265 6.8344 23.7364C6.97289 23.5989 7.11042 23.4604 7.24789 23.3218C7.33614 23.2337 7.42445 23.1456 7.51282 23.0576C7.57408 22.9958 7.57408 22.9958 7.63658 22.9327C8.05924 22.5161 8.45614 22.3084 9.04198 22.5112Z" fill="black"/>
<path d="M16.3516 26.3125C16.6235 26.4388 16.8245 26.6174 16.9375 26.8984C16.9727 27.162 16.9703 27.4238 16.9686 27.6894C16.9689 27.7661 16.9691 27.8429 16.9693 27.9219C16.9697 28.0838 16.9692 28.2457 16.9681 28.4077C16.9667 28.6146 16.9675 28.8214 16.9689 29.0283C16.97 29.2265 16.9692 29.4248 16.9686 29.623C16.9691 29.697 16.9696 29.771 16.9701 29.8472C16.9633 30.4832 16.9633 30.4832 16.7031 30.7656C16.4794 30.9782 16.2999 31.0182 16 31.0293C15.7002 31.0182 15.5207 30.9782 15.2969 30.7656C14.9863 30.4284 15.0286 30.063 15.0314 29.623C15.0312 29.5463 15.0309 29.4696 15.0307 29.3906C15.0304 29.2287 15.0309 29.0668 15.032 28.9048C15.0333 28.6979 15.0325 28.4911 15.0311 28.2842C15.0301 28.086 15.0308 27.8877 15.0314 27.6894C15.0309 27.6155 15.0304 27.5415 15.03 27.4653C15.0367 26.8293 15.0367 26.8293 15.2969 26.5469C15.6058 26.2534 15.9478 26.2581 16.3516 26.3125Z" fill="black"/>
<path d="M27.6895 15.0314C27.7662 15.0312 27.8429 15.0309 27.9219 15.0307C28.0838 15.0304 28.2457 15.0309 28.4077 15.032C28.6146 15.0333 28.8214 15.0325 29.0283 15.0311C29.2265 15.0301 29.4248 15.0308 29.623 15.0314C29.734 15.0307 29.734 15.0307 29.8472 15.03C30.4832 15.0367 30.4832 15.0367 30.7656 15.2969C30.9782 15.5207 31.0182 15.7002 31.0293 16C31.0182 16.2999 30.9782 16.4794 30.7656 16.7031C30.4284 17.0137 30.063 16.9715 29.623 16.9686C29.5463 16.9689 29.4696 16.9691 29.3906 16.9693C29.2287 16.9697 29.0668 16.9692 28.9048 16.9681C28.6979 16.9667 28.4911 16.9675 28.2842 16.9689C28.086 16.97 27.8877 16.9692 27.6895 16.9686C27.6155 16.9691 27.5415 16.9696 27.4653 16.9701C26.8293 16.9633 26.8293 16.9633 26.5469 16.7031C26.3343 16.4794 26.2943 16.2999 26.2832 16C26.2943 15.7002 26.3343 15.5207 26.5469 15.2969C26.8841 14.9863 27.2495 15.0286 27.6895 15.0314Z" fill="black"/>
<path d="M2.37695 15.0314C2.45365 15.0312 2.53036 15.0309 2.60938 15.0307C2.77133 15.0304 2.93324 15.0309 3.09518 15.032C3.30207 15.0333 3.50888 15.0325 3.71576 15.0311C3.91403 15.0301 4.11228 15.0308 4.31055 15.0314C4.42152 15.0307 4.42152 15.0307 4.53474 15.03C5.17071 15.0367 5.17071 15.0367 5.45312 15.2969C5.66572 15.5207 5.70566 15.7002 5.7168 16C5.70566 16.2999 5.66572 16.4794 5.45312 16.7031C5.11594 17.0137 4.75053 16.9715 4.31055 16.9686C4.23385 16.9689 4.15714 16.9691 4.07812 16.9693C3.91617 16.9697 3.75426 16.9692 3.59232 16.9681C3.38543 16.9667 3.17862 16.9675 2.97174 16.9689C2.77347 16.97 2.57522 16.9692 2.37695 16.9686C2.30297 16.9691 2.22899 16.9696 2.15276 16.9701C1.51679 16.9633 1.51679 16.9633 1.23438 16.7031C1.02178 16.4794 0.981836 16.2999 0.970703 16C0.981836 15.7002 1.02178 15.5207 1.23438 15.2969C1.57156 14.9863 1.93697 15.0286 2.37695 15.0314Z" fill="black"/>
<path d="M16.3516 1.00003C16.6235 1.12629 16.8245 1.30491 16.9375 1.58596C16.9727 1.84956 16.9703 2.11137 16.9686 2.37698C16.9689 2.45368 16.9691 2.53038 16.9693 2.60941C16.9697 2.77135 16.9692 2.93327 16.9681 3.09521C16.9667 3.30209 16.9675 3.50891 16.9689 3.71579C16.97 3.91405 16.9692 4.1123 16.9686 4.31057C16.9691 4.38456 16.9696 4.45854 16.9701 4.53476C16.9633 5.17074 16.9633 5.17074 16.7031 5.45315C16.4794 5.66575 16.2999 5.70569 16 5.71682C15.7002 5.70569 15.5207 5.66575 15.2969 5.45315C14.9863 5.11597 15.0286 4.75055 15.0314 4.31057C15.0312 4.23387 15.0309 4.15717 15.0307 4.07814C15.0304 3.9162 15.0309 3.75428 15.032 3.59234C15.0333 3.38546 15.0325 3.17865 15.0311 2.97176C15.0301 2.7735 15.0308 2.57525 15.0314 2.37698C15.0309 2.303 15.0304 2.22901 15.03 2.15279C15.0367 1.51681 15.0367 1.51681 15.2969 1.2344C15.6058 0.940977 15.9478 0.945665 16.3516 1.00003Z" fill="black"/>
</g>
<defs>
<clipPath id="clip0_8_14">
<rect width="30" height="30" fill="white" transform="translate(1 1)"/>
</clipPath>
</defs>
</svg>
